<svg width="532px" height="45px" viewBox="0 0 532 45" version="1.1" xmlns="http://www.w3.org/2000/svg" xmlns:xlink="http://www.w3.org/1999/xlink">
  <g transform="translate(-38.000000, -13.000000)" stroke="#979797" stroke-width="2" fill="none" fill-rule="evenodd" opacity="0.336588542">
    <path d="M400.892741,16.145898 C398.789817,14.618034 395.942242,14.618034 393.839318,16.145898 L384.473766,22.9503699 C382.370842,24.4782339 381.490893,27.1864379 382.294138,29.6585738 L385.871461,40.6684405 C386.674707,43.1405765 388.978442,44.8143386 391.5778,44.8143386 L403.154259,44.8143386 C405.753617,44.8143386 408.057352,43.1405765 408.860598,40.6684405 L412.437921,29.6585738 C413.241166,27.1864379 412.361217,24.4782339 410.258293,22.9503699 L400.892741,16.145898 Z" transform="translate(397.366029, 29.907169) rotate(10.000000) translate(-397.366029, -29.907169)"></path>
    <path d="M113.892741,26.145898 C111.789817,24.618034 108.942242,24.618034 106.839318,26.145898 L97.473766,32.9503699 C95.3708415,34.4782339 94.4908927,37.1864379 95.2941384,39.6585738 L98.8714609,50.6684405 C99.6747066,53.1405765 101.978442,54.8143386 104.5778,54.8143386 L116.154259,54.8143386 C118.753617,54.8143386 121.057352,53.1405765 121.860598,50.6684405 L125.437921,39.6585738 C126.241166,37.1864379 125.361217,34.4782339 123.258293,32.9503699 L113.892741,26.145898 Z" transform="translate(110.366029, 39.907169) rotate(-36.000000) translate(-110.366029, -39.907169)"></path>
    <path d="M252.035534,27.5355339 L261.464466,36.9644661 C263.417088,38.9170876 263.417088,42.0829124 261.464466,44.0355339 L252.035534,53.4644661 C250.082912,55.4170876 246.917088,55.4170876 244.964466,53.4644661 L235.535534,44.0355339 C233.582912,42.0829124 233.582912,38.9170876 235.535534,36.9644661 L244.964466,27.5355339 C246.917088,25.5829124 250.082912,25.5829124 252.035534,27.5355339 Z" transform="translate(248.500000, 40.500000) rotate(-32.000000) translate(-248.500000, -40.500000)"></path>
    <path d="M56.0355339,14.5355339 L65.4644661,23.9644661 C67.4170876,25.9170876 67.4170876,29.0829124 65.4644661,31.0355339 L56.0355339,40.4644661 C54.0829124,42.4170876 50.9170876,42.4170876 48.9644661,40.4644661 L39.5355339,31.0355339 C37.5829124,29.0829124 37.5829124,25.9170876 39.5355339,23.9644661 L48.9644661,14.5355339 C50.9170876,12.5829124 54.0829124,12.5829124 56.0355339,14.5355339 Z" transform="translate(52.500000, 27.500000) rotate(119.000000) translate(-52.500000, -27.500000)"></path>
    <path d="M178.722432,13.5006679 C178.459127,13.0446103 178.080413,12.6658967 177.624356,12.4025917 C176.189478,11.5741646 174.354707,12.06579 173.526279,13.5006679 L161.401924,34.5006679 C161.138619,34.9567255 161,35.4740579 161,36.0006679 C161,37.6575222 162.343146,39.0006679 164,39.0006679 L188.248711,39.0006679 C188.775321,39.0006679 189.292654,38.8620491 189.748711,38.5987441 C191.183589,37.770317 191.675215,35.9355458 190.846788,34.5006679 L178.722432,13.5006679 Z" transform="translate(176.124690, 25.500334) rotate(-51.000000) translate(-176.124690, -25.500334)"></path>
    <path d="M469.722432,25.5006679 C469.459127,25.0446103 469.080413,24.6658967 468.624356,24.4025917 C467.189478,23.5741646 465.354707,24.06579 464.526279,25.5006679 L452.401924,46.5006679 C452.138619,46.9567255 452,47.4740579 452,48.0006679 C452,49.6575222 453.343146,51.0006679 455,51.0006679 L479.248711,51.0006679 C479.775321,51.0006679 480.292654,50.8620491 480.748711,50.5987441 C482.183589,49.770317 482.675215,47.9355458 481.846788,46.5006679 L469.722432,25.5006679 Z" transform="translate(467.124690, 37.500334) rotate(-87.000000) translate(-467.124690, -37.500334)"></path>
    <path d="M300,44 L305.585786,38.4142136 C306.366835,37.633165 307.633165,37.633165 308.414214,38.4142136 L312.585786,42.5857864 C313.366835,43.366835 314.633165,43.366835 315.414214,42.5857864 L319.585786,38.4142136 C320.366835,37.633165 321.633165,37.633165 322.414214,38.4142136 L326.585786,42.5857864 C327.366835,43.366835 328.633165,43.366835 329.414214,42.5857864 L333.585786,38.4142136 C334.366835,37.633165 335.633165,37.633165 336.414214,38.4142136 L340.585786,42.5857864 C341.366835,43.366835 342.633165,43.366835 343.414214,42.5857864 L349,37 L349,37" stroke-linecap="round" transform="translate(324.500000, 40.500000) rotate(29.000000) translate(-324.500000, -40.500000)"></path>
    <path d="M522,38 L527.585786,32.4142136 C528.366835,31.633165 529.633165,31.633165 530.414214,32.4142136 L534.585786,36.5857864 C535.366835,37.366835 536.633165,37.366835 537.414214,36.5857864 L541.585786,32.4142136 C542.366835,31.633165 543.633165,31.633165 544.414214,32.4142136 L548.585786,36.5857864 C549.366835,37.366835 550.633165,37.366835 551.414214,36.5857864 L555.585786,32.4142136 C556.366835,31.633165 557.633165,31.633165 558.414214,32.4142136 L562.585786,36.5857864 C563.366835,37.366835 564.633165,37.366835 565.414214,36.5857864 L571,31 L571,31" stroke-linecap="round" transform="translate(546.500000, 34.500000) rotate(-201.000000) translate(-546.500000, -34.500000)"></path>
  </g>
</svg>
