<svg width="600px" height="72px" viewBox="0 0 600 72" version="1.1" xmlns="http://www.w3.org/2000/svg" xmlns:xlink="http://www.w3.org/1999/xlink">
  <defs>
    <g id="hexagon" transform="translate(-1.000000, 0.000000)" stroke="#979797" stroke-width="2" fill="none">
      <path d="M22.6144968,2.98935688 L31.9800488,9.79382872 C34.4334606,11.5763368 35.4600676,14.735908 34.5229476,17.6200666 L30.9456251,28.6299334 C30.0085051,31.514092 27.3208133,33.4668144 24.2882295,33.4668144 L12.7117705,33.4668144 C9.6791867,33.4668144 6.99149486,31.514092 6.05437491,28.6299334 L2.47705237,17.6200666 C1.53993243,14.735908 2.56653936,11.5763368 5.01995121,9.79382872 L14.3855032,2.98935688 C16.8389151,1.20684883 20.1610849,1.20684883 22.6144968,2.98935688 Z"></path>
    </g>

    <g id="square" transform="translate(-1.000000, -1.000000)" stroke="#979797" stroke-width="2" fill="none">
      <path d="M20.0355339,3.53553391 L29.4644661,12.9644661 C31.4170876,14.9170876 31.4170876,18.0829124 29.4644661,20.0355339 L20.0355339,29.4644661 C18.0829124,31.4170876 14.9170876,31.4170876 12.9644661,29.4644661 L3.53553391,20.0355339 C1.58291245,18.0829124 1.58291245,14.9170876 3.53553391,12.9644661 L12.9644661,3.53553391 C14.9170876,1.58291245 18.0829124,1.58291245 20.0355339,3.53553391 Z"></path>
    </g>

    <g id="squiggle" stroke="#979797" stroke-width="2" fill="none">
      <path d="M0,7 L5.58578644,1.41421356 C6.36683502,0.633164979 7.63316498,0.633164979 8.41421356,1.41421356 L12.5857864,5.58578644 C13.366835,6.36683502 14.633165,6.36683502 15.4142136,5.58578644 L19.5857864,1.41421356 C20.366835,0.633164979 21.633165,0.633164979 22.4142136,1.41421356 L26.5857864,5.58578644 C27.366835,6.36683502 28.633165,6.36683502 29.4142136,5.58578644 L33.5857864,1.41421356 C34.366835,0.633164979 35.633165,0.633164979 36.4142136,1.41421356 L40.5857864,5.58578644 C41.366835,6.36683502 42.633165,6.36683502 43.4142136,5.58578644 L49,0 L49,0"></path>
    </g>

    <g id="triangle" transform="translate(-4.000000, -3.000000)" stroke="#979797" stroke-width="2" fill="none">
      <path d="M25.4641016,6 L37.5884573,27 C38.6930268,28.9131705 38.0375261,31.3595321 36.1243557,32.4641016 C35.5162788,32.8151749 34.8265023,33 34.1243557,33 L9.87564435,33 C7.66650535,33 5.87564435,31.209139 5.87564435,29 C5.87564435,28.2978533 6.0604694,27.6080768 6.41154273,27 L18.5358984,6 C19.6404679,4.08682951 22.0868295,3.43132889 24,4.53589838 C24.6080768,4.88697171 25.1130283,5.39192316 25.4641016,6 Z"></path>
    </g>
  </defs>

  <g>
    <use xlink:href="#squiggle" transform="translate(397.366029, 29.907169) rotate(10.000000) translate(-397.366029, -29.907169)" />
    <use xlink:href="#squiggle" transform="translate(110.366029, 39.907169) rotate(-36.000000) translate(-110.366029, -39.907169)" />
    <use xlink:href="#triangle" transform="translate(248.500000, 40.500000) rotate(-32.000000) translate(-248.500000, -40.500000)" />
    <use xlink:href="#triangle" transform="translate(52.500000, 27.500000) rotate(119.000000) translate(-52.500000, -27.500000)" />
    <use xlink:href="#square" transform="translate(176.124690, 25.500334) rotate(-51.000000) translate(-176.124690, -25.500334)" />
    <use xlink:href="#square" transform="translate(467.124690, 37.500334) rotate(-87.000000) translate(-467.124690, -37.500334)" />
    <use xlink:href="#hexagon" transform="translate(324.500000, 40.500000) rotate(29.000000) translate(-324.500000, -40.500000)" />
    <use xlink:href="#hexagon" transform="translate(546.500000, 34.500000) rotate(-201.000000) translate(-546.500000, -34.500000)" />
  </g>
</svg>
